<svg width="19" height="16" viewBox="0 0 19 16" fill="none" xmlns="http://www.w3.org/2000/svg">
<path fill-rule="evenodd" clip-rule="evenodd" d="M10.3929 0.892899C10.7834 0.502375 11.4166 0.502375 11.8071 0.892899L18.2071 7.2929C18.3946 7.48044 18.5 7.73479 18.5 8.00001C18.5 8.26522 18.3946 8.51958 18.2071 8.70711L11.8071 15.1071C11.4166 15.4976 10.7834 15.4976 10.3929 15.1071C10.0024 14.7166 10.0024 14.0834 10.3929 13.6929L15.0858 9.00001H1.5C0.947715 9.00001 0.5 8.55229 0.5 8.00001C0.5 7.44772 0.947715 7.00001 1.5 7.00001H15.0858L10.3929 2.30711C10.0024 1.91659 10.0024 1.28342 10.3929 0.892899Z" fill="white"/>
</svg>
