<svg width="18" height="16" viewBox="0 0 18 16" fill="none" xmlns="http://www.w3.org/2000/svg">
<path fill-rule="evenodd" clip-rule="evenodd" d="M8.10711 0.892892C7.71658 0.502367 7.08342 0.502367 6.69289 0.892892L0.292892 7.29289C0.105356 7.48043 0 7.73478 0 8C0 8.26521 0.105356 8.51957 0.292892 8.7071L6.69289 15.1071C7.08342 15.4976 7.71658 15.4976 8.10711 15.1071C8.49763 14.7166 8.49763 14.0834 8.10711 13.6929L3.41421 9H17C17.5523 9 18 8.55228 18 8C18 7.44771 17.5523 7 17 7H3.41421L8.10711 2.30711C8.49763 1.91658 8.49763 1.28342 8.10711 0.892892Z" fill="#306ECF"/>
</svg>
