<svg width="21" height="20" viewBox="0 0 21 20" fill="none" xmlns="http://www.w3.org/2000/svg">
<path d="M7.59394 2.27878C9.20724 1.67157 10.9702 1.58496 12.6353 2.03111C13.0354 2.13832 13.4466 1.90088 13.5538 1.50078C13.661 1.10068 13.4236 0.68943 13.0235 0.582223C11.0557 0.0549576 8.97219 0.157314 7.06556 0.874918C5.15894 1.59252 3.52498 2.88932 2.39317 4.58319C1.26137 6.27706 0.688567 8.2829 0.755222 10.319C0.821878 12.3551 1.52464 14.3192 2.76481 15.9354C4.00498 17.5516 5.72025 18.7388 7.66973 19.3302C9.61921 19.9215 11.705 19.8874 13.634 19.2326C15.5631 18.5777 17.2386 17.3351 18.4253 15.6792C19.6119 14.0232 20.25 12.0372 20.25 10C20.25 9.58579 19.9142 9.25 19.5 9.25C19.0858 9.25 18.75 9.58579 18.75 10C18.75 11.7238 18.2101 13.4043 17.206 14.8054C16.2019 16.2066 14.7842 17.2581 13.1519 17.8122C11.5196 18.3663 9.75471 18.3951 8.10515 17.8948C6.4556 17.3944 5.00421 16.3899 3.95484 15.0223C2.90546 13.6547 2.31082 11.9928 2.25442 10.2699C2.19802 8.54707 2.6827 6.84982 3.64038 5.41655C4.59806 3.98327 5.98064 2.88598 7.59394 2.27878Z" fill="white"/>
<path d="M18.5897 3.71337C18.8457 3.38766 18.7891 2.91617 18.4634 2.66026C18.1377 2.40435 17.6662 2.46093 17.4103 2.78663L9.68256 12.6219L6.53033 9.46967C6.23744 9.17678 5.76257 9.17678 5.46967 9.46967C5.17678 9.76256 5.17678 10.2374 5.46967 10.5303L9.21967 14.2803C9.37133 14.432 9.58067 14.5115 9.79476 14.4987C10.0089 14.4859 10.2072 14.382 10.3397 14.2134L18.5897 3.71337Z" fill="white"/>
</svg>
